<svg width="115" height="17" viewBox="0 0 115 17" fill="none" xmlns="http://www.w3.org/2000/svg">
<path d="M114.014 7.95618L105.801 0.58764C105.738 0.531461 105.657 0.5 105.573 0.5H103.649C103.488 0.5 103.414 0.706742 103.536 0.814607L111.148 7.64607H0.173907C0.078258 7.64607 0 7.72697 0 7.82584L4.81606e-05 9.17416C4.81606e-05 9.27303 0.0783114 9.35393 0.17396 9.35393H111.146L103.534 16.1854C103.412 16.2955 103.486 16.5 103.647 16.5H105.636C105.677 16.5 105.718 16.4843 105.749 16.4551L114.014 9.04382C114.089 8.97617 114.149 8.89262 114.19 8.7988C114.232 8.70499 114.253 8.60309 114.253 8.5C114.253 8.39691 114.232 8.29501 114.19 8.2012C114.149 8.10738 114.089 8.02383 114.014 7.95618Z" fill="#050505"/>
</svg>
