<svg width="16" height="16" viewBox="0 0 16 16" fill="none" xmlns="http://www.w3.org/2000/svg">
<path d="M15.7603 7.45618L7.54756 0.0876403C7.48452 0.0314605 7.40409 0 7.31931 0H5.39546C5.2346 0 5.16069 0.206742 5.28242 0.314607L12.8952 7.14607H0.173907C0.0782581 7.14607 0 7.22697 0 7.32584V8.67416C0 8.77303 0.0782581 8.85393 0.173907 8.85393H12.893L5.28025 15.6854C5.15851 15.7955 5.23242 16 5.39329 16H7.38235C7.42365 16 7.46495 15.9843 7.49539 15.9551L15.7603 8.54382C15.8356 8.47617 15.8959 8.39262 15.9373 8.2988C15.9786 8.20499 16 8.10309 16 8C16 7.89691 15.9786 7.79501 15.9373 7.7012C15.8959 7.60738 15.8356 7.52383 15.7603 7.45618Z" fill="#EE6F2D"/>
</svg>
