<svg width="16" height="41" viewBox="0 0 16 41" fill="none" xmlns="http://www.w3.org/2000/svg">
<path d="M7.45618 0.234703L0.0876403 8.27689C0.0314605 8.33863 0 8.41739 0 8.50041L0 10.3843C0 10.5418 0.206742 10.6142 0.314607 10.495L7.14607 3.04031L7.14607 40.6601C7.14607 40.7538 7.22697 40.8304 7.32584 40.8304L8.67416 40.8303C8.77303 40.8303 8.85393 40.7537 8.85393 40.66L8.85393 3.04244L15.6854 10.4971C15.7955 10.6163 16 10.544 16 10.3864V8.43868C16 8.39823 15.9843 8.35779 15.9551 8.32799L8.54382 0.234703C8.47617 0.161011 8.39262 0.101929 8.2988 0.0614357C8.20499 0.0209465 8.10309 0 8 0C7.89691 0 7.79501 0.0209465 7.7012 0.0614357C7.60738 0.101929 7.52383 0.161011 7.45618 0.234703Z" fill="#EE6F2D"/>
</svg>
