<?xml version="1.0" encoding="UTF-8" standalone="no"?>
<svg
   width="110"
   height="19"
   viewBox="0 0 110 19"
   fill="none"
   version="1.1"
   id="svg4"
   sodipodi:docname="arrow-left-long.svg"
   inkscape:version="1.1.2 (b8e25be833, 2022-02-05)"
   xmlns:inkscape="http://www.inkscape.org/namespaces/inkscape"
   xmlns:sodipodi="http://sodipodi.sourceforge.net/DTD/sodipodi-0.dtd"
   xmlns="http://www.w3.org/2000/svg"
   xmlns:svg="http://www.w3.org/2000/svg">
  <defs
     id="defs8" />
  <sodipodi:namedview
     id="namedview6"
     pagecolor="#ffffff"
     bordercolor="#666666"
     borderopacity="1.0"
     inkscape:pageshadow="2"
     inkscape:pageopacity="0.0"
     inkscape:pagecheckerboard="0"
     showgrid="false"
     inkscape:zoom="10.6"
     inkscape:cx="55"
     inkscape:cy="9.5283019"
     inkscape:window-width="3440"
     inkscape:window-height="1377"
     inkscape:window-x="-8"
     inkscape:window-y="-8"
     inkscape:window-maximized="1"
     inkscape:current-layer="svg4" />
  <path
     d="M 0.231,8.85421 8.138,0.104073 C 8.198,0.0373594 8.276,0 8.358,0 h 1.8517 c 0.1549,0 0.2261,0.245506 0.1089,0.373596 L 2.989,8.48595 h 106.84357 c 0.0921,0 0.16743,0.09607 0.16743,0.21349 l -5e-5,1.60116 c 0,0.1174 -0.0754,0.2134 -0.16743,0.2134 H 2.991 l 7.3297,8.1124 C 10.4379,18.7572 10.3667,19 10.2118,19 H 8.297 C 8.257,19 8.217,18.9813 8.188,18.9466 L 0.231,10.1458 C 0.158,10.0655 0.1,9.96623 0.06,9.85483 0.021,9.74342 0,9.62242 0,9.5 0,9.37758 0.021,9.25658 0.06,9.14517 0.1,9.03377 0.158,8.93455 0.231,8.85421 Z"
     fill="#ee6f2d"
     id="path2" />
</svg>
