<svg width="25" height="37" viewBox="0 0 25 37" fill="none" xmlns="http://www.w3.org/2000/svg">
<path d="M21.9249 36.031L24.2684 25.353C24.2861 25.2713 24.2738 25.187 24.2321 25.1149L23.2863 23.4766C23.2072 23.3396 22.9918 23.38 22.9582 23.5376L20.7848 33.4361L1.89683 0.721127C1.8498 0.639676 1.74126 0.613483 1.65563 0.662921L0.487983 1.33712C0.402354 1.38656 0.370772 1.49365 0.417798 1.57511L19.3047 34.2882L9.64566 31.2212C9.49045 31.1725 9.3497 31.3377 9.42879 31.4747L10.4067 33.1685C10.427 33.2037 10.4609 33.231 10.5012 33.2423L20.983 36.5748C21.0786 36.6051 21.1806 36.6147 21.2822 36.603C21.3837 36.5913 21.4825 36.5585 21.5718 36.507C21.6611 36.4554 21.7388 36.3863 21.7997 36.3042C21.8606 36.222 21.9033 36.1289 21.9249 36.031Z" fill="#EE6F2D"/>
</svg>
