<svg width="110" height="19" viewBox="0 0 110 19" fill="none" xmlns="http://www.w3.org/2000/svg">
<path d="M109.769 8.85421L101.862 0.104073C101.802 0.0373594 101.724 0 101.642 0H99.7903C99.6354 0 99.5642 0.245506 99.6814 0.373596L107.011 8.48595H0.167433C0.0753448 8.48595 0 8.58202 0 8.69944L4.63677e-05 10.3006C4.63677e-05 10.418 0.0753962 10.514 0.167484 10.514H107.009L99.6793 18.6264C99.5621 18.7572 99.6333 19 99.7882 19H101.703C101.743 19 101.783 18.9813 101.812 18.9466L109.769 10.1458C109.842 10.0655 109.9 9.96623 109.94 9.85483C109.979 9.74342 110 9.62242 110 9.5C110 9.37758 109.979 9.25658 109.94 9.14517C109.9 9.03377 109.842 8.93455 109.769 8.85421Z" fill="#EE6F2D"/>
</svg>
