<svg width="36" height="37" viewBox="0 0 36 37" fill="none" xmlns="http://www.w3.org/2000/svg">
<path d="M24.1945 16.9248C22.1625 16.9248 21.8812 18.9498 21.8812 18.9498H26.1984C26.1984 18.9498 26.2266 16.9248 24.1945 16.9248ZM14.4 18.9498H10.575V22.4654H14.2102C14.7586 22.4514 15.7852 22.2967 15.7852 20.7568C15.7852 18.9287 14.4 18.9498 14.4 18.9498Z" fill="black"/>
<path d="M18 2.75C9.30234 2.75 2.25 9.80234 2.25 18.5C2.25 27.1977 9.30234 34.25 18 34.25C26.6977 34.25 33.75 27.1977 33.75 18.5C33.75 9.80234 26.6977 2.75 18 2.75ZM21.3188 12.425H26.7398V14.0422H21.3188V12.425ZM18.5766 20.9187C18.5766 24.9266 14.4 24.8 14.4 24.8H7.56562V11.6516H14.4C16.4812 11.6516 18.1195 12.7977 18.1195 15.1531C18.1195 17.5086 16.1156 17.6562 16.1156 17.6562C18.7594 17.6562 18.5766 20.9187 18.5766 20.9187ZM28.7156 20.7008H21.9023C21.9023 23.1406 24.2156 22.9859 24.2156 22.9859C26.4023 22.9859 26.325 21.5727 26.325 21.5727H28.6383C28.6383 25.3273 24.1383 25.0672 24.1383 25.0672C18.7453 25.0672 19.0898 20.0398 19.0898 20.0398C19.0898 20.0398 19.0828 14.9914 24.1383 14.9914C29.4609 14.9984 28.7156 20.7008 28.7156 20.7008Z" fill="black"/>
<path d="M15.3281 15.3572C15.3281 13.9932 14.4 13.9932 14.4 13.9932H10.575V16.9252H14.1609C14.7797 16.9252 15.3281 16.7213 15.3281 15.3572Z" fill="black"/>
</svg>
