<svg width="36" height="37" viewBox="0 0 36 37" fill="none" xmlns="http://www.w3.org/2000/svg">
<path d="M5.007 26C6.32328 28.2811 8.21716 30.1752 10.4981 31.4918C12.7789 32.8084 15.3664 33.5011 18 33.5C20.6336 33.5011 23.2211 32.8084 25.502 31.4918C27.7828 30.1752 29.6767 28.2811 30.993 26M5.007 11C6.32328 8.71892 8.21716 6.82477 10.4981 5.50816C12.7789 4.19155 15.3664 3.49893 18 3.5C20.6336 3.49893 23.2211 4.19155 25.502 5.50816C27.7828 6.82477 29.6767 8.71892 30.993 11" stroke="black" stroke-width="1.5" stroke-linecap="round" stroke-linejoin="round"/>
<path d="M19.5 33.4252C19.5 33.4252 21.612 30.6457 22.9425 26.0002M19.5 3.5752C19.5 3.5752 21.612 6.35319 22.9425 11.0002M16.5 33.4252C16.5 33.4252 14.388 30.6472 13.0575 26.0002M16.5 3.5752C16.5 3.5752 14.388 6.35319 13.0575 11.0002M13.5 15.5002L15.75 23.0002L18 15.5002L20.25 23.0002L22.5 15.5002M1.5 15.5002L3.75 23.0002L6 15.5002L8.25 23.0002L10.5 15.5002M25.5 15.5002L27.75 23.0002L30 15.5002L32.25 23.0002L34.5 15.5002" stroke="black" stroke-width="1.5" stroke-linecap="round" stroke-linejoin="round"/>
</svg>
