<svg width="36" height="37" fill="none" xmlns="http://www.w3.org/2000/svg"><path d="M24.195 16.925c-2.032 0-2.314 2.025-2.314 2.025h4.317s.029-2.025-2.003-2.025zM14.4 18.95h-3.825v3.515h3.635c.549-.014 1.575-.168 1.575-1.708 0-1.828-1.385-1.807-1.385-1.807z" fill="#000"/><path d="M18 2.75C9.302 2.75 2.25 9.802 2.25 18.5S9.302 34.25 18 34.25s15.75-7.052 15.75-15.75S26.698 2.75 18 2.75zm3.319 9.675h5.42v1.617h-5.42v-1.617zm-2.742 8.494c0 4.008-4.177 3.881-4.177 3.881H7.566V11.652H14.4c2.081 0 3.72 1.146 3.72 3.501 0 2.356-2.004 2.503-2.004 2.503 2.643 0 2.46 3.263 2.46 3.263zm10.139-.218h-6.814c0 2.44 2.314 2.285 2.314 2.285 2.186 0 2.109-1.413 2.109-1.413h2.313c0 3.754-4.5 3.494-4.5 3.494-5.393 0-5.048-5.027-5.048-5.027s-.007-5.049 5.048-5.049c5.323.007 4.578 5.71 4.578 5.71z" fill="#000"/><path d="M15.328 15.357c0-1.364-.928-1.364-.928-1.364h-3.825v2.932h3.586c.619 0 1.167-.204 1.167-1.568z" fill="#000"/></svg>